# xmcd
#
# Track frame offsets:
# 150
# 12399
# 26878
# 39196
# 51520
# 65141
# 78525
# 89329
# 103361
# 117205
#
# Disc length: 1694 seconds
#
#
# Revision: 3
# Processed by: cddbd v1.5.1PL2 Copyright (c) Steve Scherf et al.
# Submitted via: FreeRIP 2.942 
#
DISCID=8a069c0a
DTITLE=Dolly Parton - The Best Of Dolly Parton
DYEAR=1975
DGENRE=Country
TTITLE0=Jolene
TTITLE1=Lonely Comin' Down
TTITLE2=The Bargain Store
TTITLE3=Touch Your Woman
TTITLE4=When I Sing For Him
TTITLE5=I Will Always Love You
TTITLE6=Love Is Like A Butterfly
TTITLE7=Coat Of Many Colors
TTITLE8=My Tennessee Mountain Home
TTITLE9=Traveling Man
EXTD=
EXTT0=
EXTT1=
EXTT2=
EXTT3=
EXTT4=
EXTT5=
EXTT6=
EXTT7=
EXTT8=
EXTT9=
PLAYORDER=
